<svg
  class="logo"
  xmlns="http://www.w3.org/2000/svg" 
  viewBox="0 0 290 80"
  height="48px">
<style>
  .text {
    fill: #24292f;
  }

  .kite.bg {
    fill: #c5c6c8;
  }

  .kite.fg {
    fill: #24292f;
  }  
</style>

  <path class="text"
  d="M261.93,448.27v-3.85a10.88,10.88,0,0,1-8.71,4.49c-6.74,0-11.5-5.13-11.5-13.52,0-8.23,4.71-13.58,11.5-13.58a10.79,10.79,0,0,1,8.71,4.54V412.62h4v35.65Zm0-7V429.56a9.73,9.73,0,0,0-7.75-4.17c-5.19,0-8.29,4.28-8.29,10s3.1,9.94,8.29,9.94A9.63,9.63,0,0,0,261.93,441.27Z"
  transform="translate(-157.84 -383.49)" />
  <path class="text"
    d="M291.61,448.27v-3.85a10.88,10.88,0,0,1-8.71,4.49c-6.74,0-11.5-5.13-11.5-13.52,0-8.23,4.71-13.58,11.5-13.58a10.61,10.61,0,0,1,8.65,4.54v-3.9h4.07v25.82Zm0-7V429.56a9.7,9.7,0,0,0-7.75-4.17c-5.19,0-8.29,4.28-8.29,10s3.1,9.94,8.29,9.94A9.6,9.6,0,0,0,291.61,441.27Z"
    transform="translate(-157.84 -383.49)" />
  <path class="text"
    d="M300.34,444.85l2.08-2.89a11.69,11.69,0,0,0,8.5,3.69c4,0,6.09-1.87,6.09-4.44,0-6.25-16-2.4-16-12,0-4,3.48-7.43,9.63-7.43a13.06,13.06,0,0,1,9.56,3.74l-1.87,2.78a10.05,10.05,0,0,0-7.69-3.26c-3.53,0-5.73,1.76-5.73,4.07,0,5.66,16,1.92,16,12,0,4.33-3.48,7.8-10.16,7.8C306.54,448.91,303,447.62,300.34,444.85Z"
    transform="translate(-157.84 -383.49)" />
  <path class="text"
    d="M343.86,448.27v-17c0-4.54-2.35-5.88-5.83-5.88a10.16,10.16,0,0,0-7.64,4v18.87h-4V412.62h4V426.2a12.82,12.82,0,0,1,9.25-4.39c5.39,0,8.23,2.62,8.23,8.23v18.23Z"
    transform="translate(-157.84 -383.49)" />
  <path class="text"
    d="M370.92,448.27l-6.84-9.94L361,441.64v6.63h-6.78V412.62H361v21.32l9.79-11.49h8.34l-10.21,11.71,10.53,14.11Z"
    transform="translate(-157.84 -383.49)" />
  <path class="text"
    d="M381.57,415.61a4.07,4.07,0,1,1,4.06,4.06A4.09,4.09,0,0,1,381.57,415.61Zm.7,32.66V422.45h6.78v25.82Z"
    transform="translate(-157.84 -383.49)" />
  <path class="text"
    d="M396.6,441.85V428.39h-4.28v-5.94h4.28V415.4h6.84v7.05h5.23v5.94h-5.23V440c0,1.6.85,2.83,2.35,2.83a3.67,3.67,0,0,0,2.35-.75l1.44,5.13c-1,.91-2.83,1.66-5.66,1.66C399.16,448.91,396.6,446.45,396.6,441.85Z"
    transform="translate(-157.84 -383.49)" />
  <path class="text"
    d="M411.14,435.33a13.14,13.14,0,0,1,13.36-13.52c7.7,0,12.94,5.77,12.94,14.22v1.5H418.25c.43,3.26,3.05,6,7.43,6a11,11,0,0,0,6.9-2.56l3,4.38c-2.57,2.35-6.63,3.58-10.63,3.58C417.07,448.91,411.14,443.62,411.14,435.33Zm13.36-8.12a6.19,6.19,0,0,0-6.35,5.72h12.72A6,6,0,0,0,424.5,427.21Z"
    transform="translate(-157.84 -383.49)" />
  <path class="kite bg"
    d="M219.14,416.32a59.48,59.48,0,0,1-28.62,28.74,42.15,42.15,0,0,1-14.39,13.34c16.27-.34,30.44-5.36,40.67-15.66s15.29-24.51,15.6-40.88A42.11,42.11,0,0,1,219.14,416.32Z"
    transform="translate(-157.84 -383.49)" />
  <path class="kite fg"
    d="M219.14,416.32c4.58-9.66,6.94-20.77,7.17-32.83-.8,1-11.16,23.51-42,26.58-3.06,31-25.5,41.4-26.47,42.22,12-.26,23.06-2.62,32.68-7.23a45.79,45.79,0,0,0,7.35-21.36A45.34,45.34,0,0,0,219.14,416.32Z"
    transform="translate(-157.84 -383.49)" />
  <path d="M219.14,416.32a45.34,45.34,0,0,1-21.27,7.38,45.79,45.79,0,0,1-7.35,21.36,59.48,59.48,0,0,0,28.62-28.74Z"
    transform="translate(-157.84 -383.49)" />
</svg>